<svg width="96" height="96" xmlns="http://www.w3.org/2000/svg" xmlns:xlink="http://www.w3.org/1999/xlink" xml:space="preserve" overflow="hidden"><defs><clipPath id="clip0"><rect x="592" y="312" width="96" height="96"/></clipPath></defs><g clip-path="url(#clip0)" transform="translate(-592 -312)"><path d="M609.4 329C607.511 329.011 605.989 330.551 606 332.44 606 332.44 606 332.44 606 332.44L606 373.78 606 373.78C605.989 375.669 607.511 377.209 609.4 377.22 609.4 377.22 609.4 377.22 609.4 377.22L619.6 377.22 619.6 391 633.2 377.22 670.6 377.22C672.489 377.209 674.011 375.669 674 373.78 674 373.78 674 373.78 674 373.78L674 332.44 674 332.44C674.011 330.551 672.489 329.011 670.6 329 670.6 329 670.6 329 670.6 329ZM651 353C651 350.239 653.239 348 656 348 658.761 348 661 350.239 661 353 661 355.761 658.761 358 656 358 653.239 358 651 355.761 651 353ZM635 353C635 350.239 637.239 348 640 348 642.761 348 645 350.239 645 353 645 355.761 642.761 358 640 358 637.239 358 635 355.761 635 353ZM619 353C619 350.239 621.239 348 624 348 626.761 348 629 350.239 629 353 629 355.761 626.761 358 624 358 621.239 358 619 355.761 619 353Z" stroke="#000000" fill="#FFFFFF"/></g></svg>