<svg width="135" height="136" xmlns="http://www.w3.org/2000/svg" xmlns:xlink="http://www.w3.org/1999/xlink" xml:space="preserve" overflow="hidden"><defs><clipPath id="clip0"><rect x="887" y="397" width="135" height="136"/></clipPath><clipPath id="clip1"><path d="M1021.35 455.244 964.021 532.249 887.016 474.923 944.342 397.918Z" fill-rule="evenodd" clip-rule="evenodd"/></clipPath><clipPath id="clip2"><path d="M1021.35 455.244 964.021 532.249 887.016 474.923 944.342 397.918Z" fill-rule="evenodd" clip-rule="evenodd"/></clipPath><clipPath id="clip3"><path d="M1021.35 455.244 964.021 532.249 887.016 474.923 944.342 397.918Z" fill-rule="evenodd" clip-rule="evenodd"/></clipPath></defs><g clip-path="url(#clip0)" transform="translate(-887 -397)"><g clip-path="url(#clip1)"><g clip-path="url(#clip2)"><g clip-path="url(#clip3)"><path d="M981.203 487.542C979.761 488.743 978.228 489.832 976.619 490.799 959.532 501.01 937.403 495.436 927.192 478.349 916.981 461.262 922.555 439.133 939.642 428.922 941.277 427.957 942.986 427.122 944.751 426.422 936.79 439.132 936.653 455.239 944.395 468.083 952.079 480.923 966.266 488.423 981.203 487.542ZM986.932 484.727C966.398 489.223 946.108 476.221 941.612 455.688 939.254 444.918 941.683 433.654 948.269 424.812 948.791 424.11 949.338 423.426 949.911 422.758 945.94 423.638 942.132 425.136 938.627 427.199 920.649 438.072 914.889 461.461 925.763 479.439 936.551 497.276 959.684 503.109 977.64 492.52 981.125 490.423 984.26 487.793 986.932 484.727Z"/></g></g></g></g></svg>